<svg data-v-423bf9ae="" xmlns="http://www.w3.org/2000/svg" viewBox="0 0 604 90" class="iconLeft"><!----><!----><!----><g data-v-423bf9ae="" id="59ef3834-2a8e-4f2a-a6d2-72c7a9c86945" fill="#32121B" transform="matrix(7.80234016035121,0,0,7.80234016035121,84.25636950262998,-38.28998174625313)"><path d="M6.82 14.35L8.01 14.35L8.01 12.85L7.21 12.85L7.21 9.69C7.21 7.87 6.03 6.96 4.06 6.96C2.45 6.96 1.40 7.56 0.92 8.37L2.06 9.38C2.45 8.85 2.95 8.47 3.82 8.47C4.77 8.47 5.14 8.92 5.14 9.77L5.14 10.14L3.98 10.14C1.86 10.14 0.73 10.85 0.73 12.36C0.73 13.72 1.65 14.52 3.05 14.52C4.16 14.52 5.00 14.01 5.25 13.08L5.32 13.08C5.40 13.89 5.96 14.35 6.82 14.35ZM3.84 13.16C3.18 13.16 2.76 12.89 2.76 12.39L2.76 12.11C2.76 11.55 3.21 11.26 4.03 11.26L5.14 11.26L5.14 12.12C5.14 12.80 4.56 13.16 3.84 13.16ZM9.09 7.00L11.14 14.35L13.27 14.35L14.17 11.24L14.67 9.34L14.71 9.34L15.23 11.24L16.13 14.35L18.30 14.35L20.33 7.00L18.41 7.00L17.70 9.97L17.19 12.21L17.14 12.21L16.53 9.97L15.68 7.00L13.79 7.00L12.95 9.97L12.36 12.21L12.31 12.21L11.80 9.97L11.09 7.00ZM25.40 14.52C26.95 14.52 27.93 13.93 28.49 13.24L27.37 12.03C26.92 12.56 26.32 12.92 25.47 12.92C24.36 12.92 23.76 12.29 23.76 11.37L23.76 11.24L28.70 11.24L28.70 10.63C28.70 8.37 27.37 6.96 25.21 6.96C23.04 6.96 21.70 8.40 21.70 10.77C21.70 13.08 22.97 14.52 25.40 14.52ZM25.23 8.44C26.12 8.44 26.67 9.03 26.67 9.97L26.67 10.08L23.76 10.08L23.76 9.97C23.76 9.04 24.33 8.44 25.23 8.44ZM33.52 14.52C35.66 14.52 36.88 13.57 36.88 12.07C36.88 10.70 35.85 10.15 34.55 9.95L33.40 9.77C32.84 9.69 32.51 9.56 32.51 9.14C32.51 8.67 32.93 8.41 33.71 8.41C34.65 8.41 35.34 8.78 35.76 9.24L36.79 8.06C36.19 7.36 35.20 6.96 33.78 6.96C31.70 6.96 30.48 7.87 30.48 9.38C30.48 10.75 31.50 11.30 32.79 11.49L33.95 11.68C34.51 11.76 34.85 11.89 34.85 12.29C34.85 12.81 34.34 13.06 33.53 13.06C32.56 13.06 31.81 12.70 31.25 12.08L30.09 13.16C30.67 14 31.92 14.52 33.52 14.52ZM42 14.52C44.25 14.52 45.63 13.08 45.63 10.74C45.63 8.40 44.25 6.96 42 6.96C39.75 6.96 38.37 8.40 38.37 10.74C38.37 13.08 39.75 14.52 42 14.52ZM42 12.98C41.08 12.98 40.52 12.38 40.52 11.31L40.52 10.16C40.52 9.10 41.08 8.50 42 8.50C42.92 8.50 43.48 9.10 43.48 10.16L43.48 11.31C43.48 12.38 42.92 12.98 42 12.98ZM47.17 14.35L49.24 14.35L49.24 9.59C49.24 8.86 49.85 8.51 50.46 8.51C51.13 8.51 51.46 8.96 51.46 9.91L51.46 14.35L53.54 14.35L53.54 9.59C53.54 8.86 54.14 8.51 54.75 8.51C55.44 8.51 55.76 8.96 55.76 9.91L55.76 14.35L57.83 14.35L57.83 9.74C57.83 7.90 57.05 6.83 55.64 6.83C54.52 6.83 53.66 7.49 53.40 8.32L53.35 8.32C53.03 7.35 52.30 6.83 51.30 6.83C50.20 6.83 49.59 7.46 49.32 8.25L49.24 8.25L49.24 7.00L47.17 7.00ZM63.20 14.52C64.75 14.52 65.73 13.93 66.29 13.24L65.17 12.03C64.72 12.56 64.12 12.92 63.27 12.92C62.16 12.92 61.56 12.29 61.56 11.37L61.56 11.24L66.50 11.24L66.50 10.63C66.50 8.37 65.17 6.96 63.01 6.96C60.84 6.96 59.50 8.40 59.50 10.77C59.50 13.08 60.77 14.52 63.20 14.52ZM63.03 8.44C63.92 8.44 64.47 9.03 64.47 9.97L64.47 10.08L61.56 10.08L61.56 9.97C61.56 9.04 62.13 8.44 63.03 8.44Z"></path></g><defs data-v-423bf9ae=""><linearGradient data-v-423bf9ae="" gradientTransform="rotate(25)" id="481078aa-0283-4376-9125-f4d0a445827a" x1="0%" y1="0%" x2="100%" y2="0%"><stop data-v-423bf9ae="" offset="0%" style="stop-color: rgb(201, 58, 95); stop-opacity: 1;"></stop><stop data-v-423bf9ae="" offset="100%" style="stop-color: rgb(239, 176, 202); stop-opacity: 1;"></stop></linearGradient></defs><g data-v-423bf9ae="" id="1ef9741c-fe1c-459e-9eb3-6cb29c9387d8" transform="matrix(1.25,0,0,1.25,-27.481258869171143,-17.5)" stroke="none" fill="url(#481078aa-0283-4376-9125-f4d0a445827a)"><path d="M36.7 86a1.5 1.5 0 0 1-1.48-1.75l6.06-35.42H23.52a1.5 1.5 0 0 1-1.43-1.95l10-31.83A1.5 1.5 0 0 1 33.52 14h31.55a1.5 1.5 0 0 1 1.35 2.14l-6.21 13.13h16.27a1.5 1.5 0 0 1 1.21 2.39L37.91 85.39a1.5 1.5 0 0 1-1.21.61zM25.56 45.83h17.5a1.5 1.5 0 0 1 1.48 1.75l-5.3 31L73.5 32.27H57.84a1.5 1.5 0 0 1-1.36-2.14L62.7 17H34.62z"></path></g><!----></svg>